<?xml version="1.0" encoding="UTF-8" standalone="no"?>
<!DOCTYPE svg PUBLIC "-//W3C//DTD SVG 1.1//EN" "http://www.w3.org/Graphics/SVG/1.1/DTD/svg11.dtd">
<svg width="100%" height="100%" viewBox="0 0 1274 340" version="1.1" xmlns="http://www.w3.org/2000/svg" xmlns:xlink="http://www.w3.org/1999/xlink" xml:space="preserve" xmlns:serif="http://www.serif.com/" style="fill-rule:evenodd;clip-rule:evenodd;stroke-linejoin:round;stroke-miterlimit:2;">
    <g id="Artboard1" transform="matrix(1.24385,0,0,0.566,0,0)">
        <rect x="0" y="0" width="1024" height="600" style="fill:none;"/>
        <clipPath id="_clip1">
            <rect x="0" y="0" width="1024" height="600"/>
        </clipPath>
        <g clip-path="url(#_clip1)">
            <g transform="matrix(1.32715,0,0,4.09348,0,0)">
                <g id="Rectangle" transform="matrix(-3.62372e-16,-0.36649,0.514381,-2.58185e-16,308.629,146.596)">
                    <rect x="200" y="0" width="100" height="100" style="fill:rgb(216,216,216);fill-opacity:0.3;"/>
                </g>
                <g id="Rectangle1" serif:id="Rectangle" transform="matrix(-3.62372e-16,-0.36649,0.514381,-2.58185e-16,257.19,109.947)">
                    <rect x="200" y="100" width="100" height="100" style="fill:rgb(216,216,216);fill-opacity:0.3;"/>
                </g>
                <g id="Rectangle2" serif:id="Rectangle" transform="matrix(-0.514381,3.98499e-16,-5.59306e-16,-0.36649,411.505,73.298)">
                    <rect x="0" y="0" width="100" height="100" style="fill:rgb(216,216,216);fill-opacity:0.3;"/>
                </g>
                <g id="Rectangle3" serif:id="Rectangle" transform="matrix(-0.514381,3.98499e-16,-5.59306e-16,-0.36649,411.505,73.298)">
                    <path d="M0,0L100,0L0,100L0,0Z" style="fill:rgb(216,216,216);"/>
                </g>
                <g id="Rectangle4" serif:id="Rectangle" transform="matrix(-0.514381,3.98499e-16,-5.59306e-16,-0.36649,462.943,36.649)">
                    <rect x="0" y="0" width="100" height="100" style="fill:rgb(216,216,216);fill-opacity:0.3;"/>
                </g>
                <g id="Rectangle5" serif:id="Rectangle" transform="matrix(-0.514381,3.98499e-16,-5.59306e-16,-0.36649,462.943,36.649)">
                    <path d="M0,0L100,0L0,100L0,0Z" style="fill:rgb(216,216,216);fill-opacity:0.5;"/>
                </g>
                <g id="Rectangle6" serif:id="Rectangle" transform="matrix(-3.62372e-16,-0.36649,0.514381,-2.58185e-16,411.505,73.298)">
                    <rect x="0" y="0" width="100" height="100" style="fill:rgb(216,216,216);fill-opacity:0.3;"/>
                </g>
                <g id="Rectangle7" serif:id="Rectangle" transform="matrix(-3.62372e-16,-0.36649,0.514381,-2.58185e-16,411.505,73.298)">
                    <path d="M0,0L100,0L0,100L0,0Z" style="fill:rgb(216,216,216);fill-opacity:0.5;"/>
                </g>
                <g id="Rectangle8" serif:id="Rectangle" transform="matrix(0.514381,-5.16371e-16,7.24744e-16,0.36649,360.067,1.53591e-14)">
                    <rect x="0" y="0" width="100" height="100" style="fill:rgb(216,216,216);fill-opacity:0.5;"/>
                </g>
                <g id="Rectangle9" serif:id="Rectangle" transform="matrix(0.514381,-5.16371e-16,7.24744e-16,0.36649,360.067,1.53591e-14)">
                    <path d="M0,0L100,0L0,100L0,0Z" style="fill:rgb(216,216,216);"/>
                </g>
                <g id="Rectangle10" serif:id="Rectangle" transform="matrix(-0.514381,3.98499e-16,-5.59306e-16,-0.36649,360.067,36.649)">
                    <path d="M0,0L100,0L0,100L0,0Z" style="fill:rgb(216,216,216);fill-opacity:0.5;"/>
                </g>
                <g id="Rectangle11" serif:id="Rectangle" transform="matrix(7.5624e-16,0.36649,-0.514381,5.38812e-16,360.067,-36.649)">
                    <path d="M200,-0L300,-0L200,100L200,-0Z" style="fill:rgb(216,216,216);"/>
                </g>
                <g id="Rectangle12" serif:id="Rectangle" transform="matrix(0.514381,-3.98499e-16,5.59306e-16,0.36649,51.4381,1.53591e-14)">
                    <rect x="0" y="0" width="100" height="100" style="fill:rgb(216,216,216);fill-opacity:0.3;"/>
                </g>
                <g id="Rectangle13" serif:id="Rectangle" transform="matrix(0.514381,-3.98499e-16,5.59306e-16,0.36649,51.4381,1.53591e-14)">
                    <path d="M0,0L100,0L0,100L0,0Z" style="fill:rgb(216,216,216);"/>
                </g>
                <g id="Rectangle14" serif:id="Rectangle" transform="matrix(0.514381,-3.98499e-16,5.59306e-16,0.36649,-2.7497e-14,36.649)">
                    <rect x="0" y="0" width="100" height="100" style="fill:rgb(216,216,216);fill-opacity:0.3;"/>
                </g>
                <g id="Rectangle15" serif:id="Rectangle" transform="matrix(0.514381,-3.98499e-16,5.59306e-16,0.36649,-2.7497e-14,36.649)">
                    <path d="M0,0L100,0L0,100L0,0Z" style="fill:rgb(216,216,216);fill-opacity:0.5;"/>
                </g>
                <g id="Rectangle16" serif:id="Rectangle" transform="matrix(3.62372e-16,0.36649,-0.514381,2.58185e-16,51.4381,-1.84938e-14)">
                    <rect x="0" y="0" width="100" height="100" style="fill:rgb(216,216,216);fill-opacity:0.3;"/>
                </g>
                <g id="Rectangle17" serif:id="Rectangle" transform="matrix(3.62372e-16,0.36649,-0.514381,2.58185e-16,51.4381,-1.84938e-14)">
                    <path d="M0,0L100,0L0,100L0,0Z" style="fill:rgb(216,216,216);fill-opacity:0.5;"/>
                </g>
                <g id="Rectangle18" serif:id="Rectangle" transform="matrix(-0.514381,5.16371e-16,-7.24744e-16,-0.36649,102.876,73.298)">
                    <rect x="0" y="0" width="100" height="100" style="fill:rgb(216,216,216);fill-opacity:0.5;"/>
                </g>
                <g id="Rectangle19" serif:id="Rectangle" transform="matrix(-0.514381,5.16371e-16,-7.24744e-16,-0.36649,102.876,73.298)">
                    <path d="M0,0L100,0L0,100L0,0Z" style="fill:rgb(216,216,216);"/>
                </g>
                <g id="Rectangle20" serif:id="Rectangle" transform="matrix(0.514381,-3.98499e-16,5.59306e-16,0.36649,102.876,36.649)">
                    <path d="M0,0L100,0L0,100L0,0Z" style="fill:rgb(216,216,216);"/>
                </g>
                <g id="Rectangle21" serif:id="Rectangle" transform="matrix(-7.5624e-16,-0.36649,0.514381,-5.38812e-16,102.876,36.649)">
                    <path d="M0,0L100,0L0,100L0,0Z" style="fill:rgb(216,216,216);"/>
                </g>
                <g id="Rectangle22" serif:id="Rectangle" transform="matrix(3.62372e-16,0.36649,-0.514381,2.58185e-16,154.314,-73.298)">
                    <rect x="200" y="0" width="100" height="100" style="fill:rgb(216,216,216);fill-opacity:0.3;"/>
                </g>
                <g id="Rectangle23" serif:id="Rectangle" transform="matrix(3.62372e-16,0.36649,-0.514381,2.58185e-16,205.752,-1.84938e-14)">
                    <rect x="0" y="0" width="100" height="100" style="fill:rgb(216,216,216);fill-opacity:0.3;"/>
                </g>
                <g id="Rectangle24" serif:id="Rectangle" transform="matrix(3.62372e-16,0.36649,-0.514381,2.58185e-16,205.752,-1.84938e-14)">
                    <path d="M0,0L100,0L0,100L0,0Z" style="fill:rgb(216,216,216);"/>
                </g>
                <g id="Rectangle25" serif:id="Rectangle" transform="matrix(0.514381,-3.98499e-16,5.59306e-16,0.36649,154.314,36.649)">
                    <rect x="0" y="0" width="100" height="100" style="fill:rgb(216,216,216);fill-opacity:0.5;"/>
                </g>
                <g id="Rectangle26" serif:id="Rectangle" transform="matrix(0.514381,-3.98499e-16,5.59306e-16,0.36649,154.314,36.649)">
                    <path d="M0,0L100,0L0,100L0,0Z" style="fill:rgb(216,216,216);"/>
                </g>
                <g id="Rectangle27" serif:id="Rectangle" transform="matrix(-7.5624e-16,-0.36649,0.514381,-5.38812e-16,205.752,73.298)">
                    <rect x="0" y="0" width="100" height="100" style="fill:rgb(216,216,216);fill-opacity:0.5;"/>
                </g>
                <g id="Rectangle28" serif:id="Rectangle" transform="matrix(-7.5624e-16,-0.36649,0.514381,-5.38812e-16,205.752,73.298)">
                    <path d="M0,0L100,0L0,100L0,0Z" style="fill:rgb(216,216,216);"/>
                </g>
                <g id="Rectangle29" serif:id="Rectangle" transform="matrix(-7.5624e-16,-0.36649,0.514381,-5.38812e-16,205.752,73.298)">
                    <rect x="100" y="0" width="100" height="100" style="fill:rgb(216,216,216);fill-opacity:0.3;"/>
                </g>
                <g id="Rectangle30" serif:id="Rectangle" transform="matrix(-7.5624e-16,-0.36649,0.514381,-5.38812e-16,205.752,73.298)">
                    <path d="M100,0L200,0L100,100L100,0Z" style="fill:rgb(216,216,216);fill-opacity:0.5;"/>
                </g>
                <g id="Rectangle31" serif:id="Rectangle" transform="matrix(-7.5624e-16,-0.36649,0.514381,-5.38812e-16,257.19,36.649)">
                    <path d="M0,0L100,0L0,100L0,0Z" style="fill:rgb(216,216,216);fill-opacity:0.3;"/>
                </g>
                <g id="Rectangle32" serif:id="Rectangle" transform="matrix(3.62372e-16,0.36649,-0.514381,2.58185e-16,308.629,36.649)">
                    <rect x="0" y="0" width="100" height="100" style="fill:rgb(216,216,216);fill-opacity:0.5;"/>
                </g>
                <g id="Rectangle33" serif:id="Rectangle" transform="matrix(3.62372e-16,0.36649,-0.514381,2.58185e-16,308.629,36.649)">
                    <path d="M0,0L100,0L0,100L0,0Z" style="fill:rgb(216,216,216);"/>
                </g>
                <g id="Rectangle34" serif:id="Rectangle" transform="matrix(0.514381,-3.98499e-16,5.59306e-16,0.36649,514.381,1.53591e-14)">
                    <rect x="0" y="0" width="100" height="100" style="fill:rgb(216,216,216);fill-opacity:0.3;"/>
                </g>
                <g id="Rectangle35" serif:id="Rectangle" transform="matrix(0.514381,-3.98499e-16,5.59306e-16,0.36649,514.381,1.53591e-14)">
                    <path d="M0,0L100,0L0,100L0,0Z" style="fill:rgb(216,216,216);"/>
                </g>
                <g id="Rectangle36" serif:id="Rectangle" transform="matrix(0.514381,-3.98499e-16,5.59306e-16,0.36649,462.943,36.649)">
                    <rect x="0" y="0" width="100" height="100" style="fill:rgb(216,216,216);fill-opacity:0.3;"/>
                </g>
                <g id="Rectangle37" serif:id="Rectangle" transform="matrix(0.514381,-3.98499e-16,5.59306e-16,0.36649,462.943,36.649)">
                    <path d="M0,0L100,0L0,100L0,0Z" style="fill:rgb(216,216,216);fill-opacity:0.5;"/>
                </g>
                <g id="Rectangle38" serif:id="Rectangle" transform="matrix(3.62372e-16,0.36649,-0.514381,2.58185e-16,514.381,-1.84938e-14)">
                    <rect x="0" y="0" width="100" height="100" style="fill:rgb(216,216,216);fill-opacity:0.3;"/>
                </g>
                <g id="Rectangle39" serif:id="Rectangle" transform="matrix(3.62372e-16,0.36649,-0.514381,2.58185e-16,514.381,-1.84938e-14)">
                    <path d="M0,0L100,0L0,100L0,0Z" style="fill:rgb(216,216,216);fill-opacity:0.5;"/>
                </g>
                <g id="Rectangle40" serif:id="Rectangle" transform="matrix(-0.514381,5.16371e-16,-7.24744e-16,-0.36649,565.819,73.298)">
                    <rect x="0" y="0" width="100" height="100" style="fill:rgb(216,216,216);fill-opacity:0.5;"/>
                </g>
                <g id="Rectangle41" serif:id="Rectangle" transform="matrix(-0.514381,5.16371e-16,-7.24744e-16,-0.36649,565.819,73.298)">
                    <path d="M0,0L100,0L0,100L0,0Z" style="fill:rgb(216,216,216);"/>
                </g>
                <g id="Rectangle42" serif:id="Rectangle" transform="matrix(0.514381,-3.98499e-16,5.59306e-16,0.36649,565.819,36.649)">
                    <path d="M0,0L100,0L0,100L0,0Z" style="fill:rgb(216,216,216);"/>
                </g>
                <g id="Rectangle43" serif:id="Rectangle" transform="matrix(-7.5624e-16,-0.36649,0.514381,-5.38812e-16,565.819,36.649)">
                    <path d="M0,0L100,0L0,100L0,0Z" style="fill:rgb(216,216,216);"/>
                </g>
                <g id="Rectangle44" serif:id="Rectangle" transform="matrix(3.62372e-16,0.36649,-0.514381,2.58185e-16,617.257,-73.298)">
                    <rect x="200" y="0" width="100" height="100" style="fill:rgb(216,216,216);fill-opacity:0.3;"/>
                </g>
                <g id="Rectangle45" serif:id="Rectangle" transform="matrix(3.62372e-16,0.36649,-0.514381,2.58185e-16,668.695,-1.84938e-14)">
                    <rect x="0" y="0" width="100" height="100" style="fill:rgb(216,216,216);fill-opacity:0.3;"/>
                </g>
                <g id="Rectangle46" serif:id="Rectangle" transform="matrix(3.62372e-16,0.36649,-0.514381,2.58185e-16,668.695,-1.84938e-14)">
                    <path d="M0,0L100,0L0,100L0,0Z" style="fill:rgb(216,216,216);"/>
                </g>
                <g id="Rectangle47" serif:id="Rectangle" transform="matrix(0.514381,-3.98499e-16,5.59306e-16,0.36649,617.257,36.649)">
                    <rect x="0" y="0" width="100" height="100" style="fill:rgb(216,216,216);fill-opacity:0.5;"/>
                </g>
                <g id="Rectangle48" serif:id="Rectangle" transform="matrix(0.514381,-3.98499e-16,5.59306e-16,0.36649,617.257,36.649)">
                    <path d="M0,0L100,0L0,100L0,0Z" style="fill:rgb(216,216,216);"/>
                </g>
                <g id="Rectangle49" serif:id="Rectangle" transform="matrix(-7.5624e-16,-0.36649,0.514381,-5.38812e-16,668.695,73.298)">
                    <rect x="0" y="0" width="100" height="100" style="fill:rgb(216,216,216);fill-opacity:0.5;"/>
                </g>
                <g id="Rectangle50" serif:id="Rectangle" transform="matrix(-7.5624e-16,-0.36649,0.514381,-5.38812e-16,668.695,73.298)">
                    <path d="M0,0L100,0L0,100L0,0Z" style="fill:rgb(216,216,216);"/>
                </g>
                <g id="Rectangle51" serif:id="Rectangle" transform="matrix(-7.5624e-16,-0.36649,0.514381,-5.38812e-16,668.695,73.298)">
                    <rect x="100" y="0" width="100" height="100" style="fill:rgb(216,216,216);fill-opacity:0.3;"/>
                </g>
                <g id="Rectangle52" serif:id="Rectangle" transform="matrix(-7.5624e-16,-0.36649,0.514381,-5.38812e-16,668.695,73.298)">
                    <path d="M100,0L200,0L100,100L100,0Z" style="fill:rgb(216,216,216);fill-opacity:0.5;"/>
                </g>
                <g id="Rectangle53" serif:id="Rectangle" transform="matrix(-7.5624e-16,-0.36649,0.514381,-5.38812e-16,720.133,36.649)">
                    <path d="M0,0L100,0L0,100L0,0Z" style="fill:rgb(216,216,216);fill-opacity:0.3;"/>
                </g>
                <g id="Rectangle54" serif:id="Rectangle" transform="matrix(3.62372e-16,0.36649,-0.514381,2.58185e-16,771.571,36.649)">
                    <rect x="0" y="0" width="100" height="100" style="fill:rgb(216,216,216);fill-opacity:0.5;"/>
                </g>
                <g id="Rectangle55" serif:id="Rectangle" transform="matrix(3.62372e-16,0.36649,-0.514381,2.58185e-16,771.571,36.649)">
                    <path d="M0,0L100,0L0,100L0,0Z" style="fill:rgb(216,216,216);"/>
                </g>
                <g id="Rectangle56" serif:id="Rectangle" transform="matrix(3.62372e-16,-0.36649,-0.514381,-2.58185e-16,308.629,219.894)">
                    <rect x="200" y="0" width="100" height="100" style="fill:rgb(216,216,216);fill-opacity:0.3;"/>
                </g>
                <g id="Rectangle57" serif:id="Rectangle" transform="matrix(3.62372e-16,-0.36649,-0.514381,-2.58185e-16,360.067,183.245)">
                    <rect x="200" y="100" width="100" height="100" style="fill:rgb(216,216,216);fill-opacity:0.3;"/>
                </g>
                <g id="Rectangle58" serif:id="Rectangle" transform="matrix(0.514381,3.98499e-16,5.59306e-16,-0.36649,205.752,146.596)">
                    <rect x="0" y="0" width="100" height="100" style="fill:rgb(216,216,216);fill-opacity:0.3;"/>
                </g>
                <g id="Rectangle59" serif:id="Rectangle" transform="matrix(0.514381,3.98499e-16,5.59306e-16,-0.36649,205.752,146.596)">
                    <path d="M0,0L100,0L0,100L0,0Z" style="fill:rgb(216,216,216);"/>
                </g>
                <g id="Rectangle60" serif:id="Rectangle" transform="matrix(0.514381,3.98499e-16,5.59306e-16,-0.36649,154.314,109.947)">
                    <rect x="0" y="0" width="100" height="100" style="fill:rgb(216,216,216);fill-opacity:0.3;"/>
                </g>
                <g id="Rectangle61" serif:id="Rectangle" transform="matrix(0.514381,3.98499e-16,5.59306e-16,-0.36649,154.314,109.947)">
                    <path d="M0,0L100,0L0,100L0,0Z" style="fill:rgb(216,216,216);fill-opacity:0.5;"/>
                </g>
                <g id="Rectangle62" serif:id="Rectangle" transform="matrix(3.62372e-16,-0.36649,-0.514381,-2.58185e-16,205.752,146.596)">
                    <rect x="0" y="0" width="100" height="100" style="fill:rgb(216,216,216);fill-opacity:0.3;"/>
                </g>
                <g id="Rectangle63" serif:id="Rectangle" transform="matrix(3.62372e-16,-0.36649,-0.514381,-2.58185e-16,205.752,146.596)">
                    <path d="M0,0L100,0L0,100L0,0Z" style="fill:rgb(216,216,216);fill-opacity:0.5;"/>
                </g>
                <g id="Rectangle64" serif:id="Rectangle" transform="matrix(-0.514381,-5.16371e-16,-7.24744e-16,0.36649,257.19,73.298)">
                    <rect x="0" y="0" width="100" height="100" style="fill:rgb(216,216,216);fill-opacity:0.5;"/>
                </g>
                <g id="Rectangle65" serif:id="Rectangle" transform="matrix(-0.514381,-5.16371e-16,-7.24744e-16,0.36649,257.19,73.298)">
                    <path d="M0,0L100,0L0,100L0,0Z" style="fill:rgb(216,216,216);"/>
                </g>
                <g id="Rectangle66" serif:id="Rectangle" transform="matrix(0.514381,3.98499e-16,5.59306e-16,-0.36649,257.19,109.947)">
                    <path d="M0,0L100,0L0,100L0,0Z" style="fill:rgb(216,216,216);fill-opacity:0.5;"/>
                </g>
                <g id="Rectangle67" serif:id="Rectangle" transform="matrix(-7.5624e-16,0.36649,0.514381,5.38812e-16,257.19,36.649)">
                    <path d="M200,-0L300,-0L200,100L200,-0Z" style="fill:rgb(216,216,216);"/>
                </g>
                <g id="Rectangle68" serif:id="Rectangle" transform="matrix(-0.514381,-3.98499e-16,-5.59306e-16,0.36649,102.876,73.298)">
                    <rect x="0" y="0" width="100" height="100" style="fill:rgb(216,216,216);fill-opacity:0.3;"/>
                </g>
                <g id="Rectangle69" serif:id="Rectangle" transform="matrix(-0.514381,-3.98499e-16,-5.59306e-16,0.36649,102.876,73.298)">
                    <path d="M0,0L100,0L0,100L0,0Z" style="fill:rgb(216,216,216);"/>
                </g>
                <g id="Rectangle70" serif:id="Rectangle" transform="matrix(-0.514381,-3.98499e-16,-5.59306e-16,0.36649,154.314,109.947)">
                    <rect x="0" y="0" width="100" height="100" style="fill:rgb(216,216,216);fill-opacity:0.3;"/>
                </g>
                <g id="Rectangle71" serif:id="Rectangle" transform="matrix(-0.514381,-3.98499e-16,-5.59306e-16,0.36649,154.314,109.947)">
                    <path d="M0,0L100,0L0,100L0,0Z" style="fill:rgb(216,216,216);fill-opacity:0.5;"/>
                </g>
                <g id="Rectangle72" serif:id="Rectangle" transform="matrix(-3.62372e-16,0.36649,0.514381,2.58185e-16,102.876,73.298)">
                    <rect x="0" y="0" width="100" height="100" style="fill:rgb(216,216,216);fill-opacity:0.3;"/>
                </g>
                <g id="Rectangle73" serif:id="Rectangle" transform="matrix(-3.62372e-16,0.36649,0.514381,2.58185e-16,102.876,73.298)">
                    <path d="M0,0L100,0L0,100L0,0Z" style="fill:rgb(216,216,216);fill-opacity:0.5;"/>
                </g>
                <g id="Rectangle74" serif:id="Rectangle" transform="matrix(0.514381,5.16371e-16,7.24744e-16,-0.36649,51.4381,146.596)">
                    <rect x="0" y="0" width="100" height="100" style="fill:rgb(216,216,216);fill-opacity:0.5;"/>
                </g>
                <g id="Rectangle75" serif:id="Rectangle" transform="matrix(0.514381,5.16371e-16,7.24744e-16,-0.36649,51.4381,146.596)">
                    <path d="M0,0L100,0L0,100L0,0Z" style="fill:rgb(216,216,216);"/>
                </g>
                <g id="Rectangle76" serif:id="Rectangle" transform="matrix(-0.514381,-3.98499e-16,-5.59306e-16,0.36649,51.4381,109.947)">
                    <path d="M0,0L100,0L0,100L0,0Z" style="fill:rgb(216,216,216);"/>
                </g>
                <g id="Rectangle77" serif:id="Rectangle" transform="matrix(7.5624e-16,-0.36649,-0.514381,-5.38812e-16,51.4381,109.947)">
                    <path d="M0,0L100,0L0,100L0,0Z" style="fill:rgb(216,216,216);"/>
                </g>
                <g id="Rectangle78" serif:id="Rectangle" transform="matrix(-3.62372e-16,0.36649,0.514381,2.58185e-16,8.35689e-14,-1.58898e-14)">
                    <rect x="200" y="0" width="100" height="100" style="fill:rgb(216,216,216);fill-opacity:0.3;"/>
                </g>
                <g id="Rectangle79" serif:id="Rectangle" transform="matrix(-3.62372e-16,0.36649,0.514381,2.58185e-16,411.505,73.298)">
                    <rect x="0" y="0" width="100" height="100" style="fill:rgb(216,216,216);fill-opacity:0.3;"/>
                </g>
                <g id="Rectangle80" serif:id="Rectangle" transform="matrix(-3.62372e-16,0.36649,0.514381,2.58185e-16,411.505,73.298)">
                    <path d="M0,0L100,0L0,100L0,0Z" style="fill:rgb(216,216,216);"/>
                </g>
                <g id="Rectangle81" serif:id="Rectangle" transform="matrix(-0.514381,-3.98499e-16,-5.59306e-16,0.36649,462.943,109.947)">
                    <rect x="0" y="0" width="100" height="100" style="fill:rgb(216,216,216);fill-opacity:0.5;"/>
                </g>
                <g id="Rectangle82" serif:id="Rectangle" transform="matrix(-0.514381,-3.98499e-16,-5.59306e-16,0.36649,462.943,109.947)">
                    <path d="M0,0L100,0L0,100L0,0Z" style="fill:rgb(216,216,216);"/>
                </g>
                <g id="Rectangle83" serif:id="Rectangle" transform="matrix(7.5624e-16,-0.36649,-0.514381,-5.38812e-16,411.505,146.596)">
                    <rect x="0" y="0" width="100" height="100" style="fill:rgb(216,216,216);fill-opacity:0.5;"/>
                </g>
                <g id="Rectangle84" serif:id="Rectangle" transform="matrix(7.5624e-16,-0.36649,-0.514381,-5.38812e-16,411.505,146.596)">
                    <path d="M0,0L100,0L0,100L0,0Z" style="fill:rgb(216,216,216);"/>
                </g>
                <g id="Rectangle85" serif:id="Rectangle" transform="matrix(7.5624e-16,-0.36649,-0.514381,-5.38812e-16,411.505,146.596)">
                    <rect x="100" y="0" width="100" height="100" style="fill:rgb(216,216,216);fill-opacity:0.3;"/>
                </g>
                <g id="Rectangle86" serif:id="Rectangle" transform="matrix(7.5624e-16,-0.36649,-0.514381,-5.38812e-16,411.505,146.596)">
                    <path d="M100,0L200,0L100,100L100,0Z" style="fill:rgb(216,216,216);fill-opacity:0.5;"/>
                </g>
                <g id="Rectangle87" serif:id="Rectangle" transform="matrix(7.5624e-16,-0.36649,-0.514381,-5.38812e-16,360.067,109.947)">
                    <path d="M0,0L100,0L0,100L0,0Z" style="fill:rgb(216,216,216);fill-opacity:0.3;"/>
                </g>
                <g id="Rectangle88" serif:id="Rectangle" transform="matrix(-3.62372e-16,0.36649,0.514381,2.58185e-16,308.629,109.947)">
                    <rect x="0" y="0" width="100" height="100" style="fill:rgb(216,216,216);fill-opacity:0.5;"/>
                </g>
                <g id="Rectangle89" serif:id="Rectangle" transform="matrix(-3.62372e-16,0.36649,0.514381,2.58185e-16,308.629,109.947)">
                    <path d="M0,0L100,0L0,100L0,0Z" style="fill:rgb(216,216,216);"/>
                </g>
                <g id="Rectangle90" serif:id="Rectangle" transform="matrix(-0.514381,3.98499e-16,-5.59306e-16,-0.36649,565.819,146.596)">
                    <rect x="0" y="0" width="100" height="100" style="fill:rgb(216,216,216);fill-opacity:0.3;"/>
                </g>
                <g id="Rectangle91" serif:id="Rectangle" transform="matrix(-0.514381,3.98499e-16,-5.59306e-16,-0.36649,565.819,146.596)">
                    <path d="M0,0L100,0L0,100L0,0Z" style="fill:rgb(216,216,216);"/>
                </g>
                <g id="Rectangle92" serif:id="Rectangle" transform="matrix(-0.514381,3.98499e-16,-5.59306e-16,-0.36649,617.257,109.947)">
                    <rect x="0" y="0" width="100" height="100" style="fill:rgb(216,216,216);fill-opacity:0.3;"/>
                </g>
                <g id="Rectangle93" serif:id="Rectangle" transform="matrix(-0.514381,3.98499e-16,-5.59306e-16,-0.36649,617.257,109.947)">
                    <path d="M0,0L100,0L0,100L0,0Z" style="fill:rgb(216,216,216);fill-opacity:0.5;"/>
                </g>
                <g id="Rectangle94" serif:id="Rectangle" transform="matrix(-3.62372e-16,-0.36649,0.514381,-2.58185e-16,565.819,146.596)">
                    <rect x="0" y="0" width="100" height="100" style="fill:rgb(216,216,216);fill-opacity:0.3;"/>
                </g>
                <g id="Rectangle95" serif:id="Rectangle" transform="matrix(-3.62372e-16,-0.36649,0.514381,-2.58185e-16,565.819,146.596)">
                    <path d="M0,0L100,0L0,100L0,0Z" style="fill:rgb(216,216,216);fill-opacity:0.5;"/>
                </g>
                <g id="Rectangle96" serif:id="Rectangle" transform="matrix(0.514381,-5.16371e-16,7.24744e-16,0.36649,514.381,73.298)">
                    <rect x="0" y="0" width="100" height="100" style="fill:rgb(216,216,216);fill-opacity:0.5;"/>
                </g>
                <g id="Rectangle97" serif:id="Rectangle" transform="matrix(0.514381,-5.16371e-16,7.24744e-16,0.36649,514.381,73.298)">
                    <path d="M0,0L100,0L0,100L0,0Z" style="fill:rgb(216,216,216);"/>
                </g>
                <g id="Rectangle98" serif:id="Rectangle" transform="matrix(-0.514381,3.98499e-16,-5.59306e-16,-0.36649,514.381,109.947)">
                    <path d="M0,0L100,0L0,100L0,0Z" style="fill:rgb(216,216,216);"/>
                </g>
                <g id="Rectangle99" serif:id="Rectangle" transform="matrix(7.5624e-16,0.36649,-0.514381,5.38812e-16,514.381,109.947)">
                    <path d="M0,0L100,0L0,100L0,0Z" style="fill:rgb(216,216,216);"/>
                </g>
                <g id="Rectangle100" serif:id="Rectangle" transform="matrix(-3.62372e-16,-0.36649,0.514381,-2.58185e-16,462.943,219.894)">
                    <rect x="200" y="0" width="100" height="100" style="fill:rgb(216,216,216);fill-opacity:0.3;"/>
                </g>
                <g id="Rectangle101" serif:id="Rectangle" transform="matrix(-3.62372e-16,-0.36649,0.514381,-2.58185e-16,720.133,146.596)">
                    <rect x="0" y="0" width="100" height="100" style="fill:rgb(216,216,216);fill-opacity:0.3;"/>
                </g>
                <g id="Rectangle102" serif:id="Rectangle" transform="matrix(-3.62372e-16,-0.36649,0.514381,-2.58185e-16,720.133,146.596)">
                    <path d="M0,0L100,0L0,100L0,0Z" style="fill:rgb(216,216,216);"/>
                </g>
                <g id="Rectangle103" serif:id="Rectangle" transform="matrix(-0.514381,3.98499e-16,-5.59306e-16,-0.36649,771.571,109.947)">
                    <rect x="0" y="0" width="100" height="100" style="fill:rgb(216,216,216);fill-opacity:0.5;"/>
                </g>
                <g id="Rectangle104" serif:id="Rectangle" transform="matrix(-0.514381,3.98499e-16,-5.59306e-16,-0.36649,771.571,109.947)">
                    <path d="M0,0L100,0L0,100L0,0Z" style="fill:rgb(216,216,216);"/>
                </g>
                <g id="Rectangle105" serif:id="Rectangle" transform="matrix(7.5624e-16,0.36649,-0.514381,5.38812e-16,720.133,73.298)">
                    <rect x="0" y="0" width="100" height="100" style="fill:rgb(216,216,216);fill-opacity:0.5;"/>
                </g>
                <g id="Rectangle106" serif:id="Rectangle" transform="matrix(7.5624e-16,0.36649,-0.514381,5.38812e-16,720.133,73.298)">
                    <path d="M0,0L100,0L0,100L0,0Z" style="fill:rgb(216,216,216);"/>
                </g>
                <g id="Rectangle107" serif:id="Rectangle" transform="matrix(7.5624e-16,0.36649,-0.514381,5.38812e-16,720.133,73.298)">
                    <rect x="100" y="0" width="100" height="100" style="fill:rgb(216,216,216);fill-opacity:0.3;"/>
                </g>
                <g id="Rectangle108" serif:id="Rectangle" transform="matrix(7.5624e-16,0.36649,-0.514381,5.38812e-16,720.133,73.298)">
                    <path d="M100,0L200,0L100,100L100,0Z" style="fill:rgb(216,216,216);fill-opacity:0.5;"/>
                </g>
                <g id="Rectangle109" serif:id="Rectangle" transform="matrix(7.5624e-16,0.36649,-0.514381,5.38812e-16,668.695,109.947)">
                    <path d="M0,0L100,0L0,100L0,0Z" style="fill:rgb(216,216,216);fill-opacity:0.3;"/>
                </g>
                <g id="Rectangle110" serif:id="Rectangle" transform="matrix(-3.62372e-16,-0.36649,0.514381,-2.58185e-16,617.257,109.947)">
                    <rect x="0" y="0" width="100" height="100" style="fill:rgb(216,216,216);fill-opacity:0.5;"/>
                </g>
                <g id="Rectangle111" serif:id="Rectangle" transform="matrix(-3.62372e-16,-0.36649,0.514381,-2.58185e-16,617.257,109.947)">
                    <path d="M0,0L100,0L0,100L0,0Z" style="fill:rgb(216,216,216);"/>
                </g>
            </g>
            <g id="Rectangle112" serif:id="Rectangle" transform="matrix(5.66373e-16,1.76678,-0.803957,1.24467e-15,482.374,-353.357)">
                <rect x="200" y="0" width="100" height="100" style="fill:rgb(216,216,216);fill-opacity:0;"/>
            </g>
            <g id="Rectangle113" serif:id="Rectangle" transform="matrix(-5.66373e-16,1.76678,0.803957,1.24467e-15,482.374,-5.0215e-14)">
                <rect x="200" y="0" width="100" height="100" style="fill:rgb(216,216,216);fill-opacity:0;"/>
            </g>
            <g id="Rectangle114" serif:id="Rectangle" transform="matrix(-5.66373e-16,-1.76678,0.803957,-1.24467e-15,964.748,1060.07)">
                <rect x="200" y="0" width="100" height="100" style="fill:rgb(216,216,216);fill-opacity:0;"/>
            </g>
        </g>
    </g>
</svg>
